<svg xmlns="http://www.w3.org/2000/svg" viewBox="0 0 64 64" role="img" aria-label="Mind Thread Miner icon">
  <defs>
    <linearGradient id="bg" x1="0" y1="0" x2="1" y2="1">
      <stop offset="0%" stop-color="#0b1220" />
      <stop offset="100%" stop-color="#1b2a4a" />
    </linearGradient>
    <linearGradient id="pulse" x1="0" y1="0" x2="1" y2="1">
      <stop offset="0%" stop-color="#7c3aed" />
      <stop offset="100%" stop-color="#22d3ee" />
    </linearGradient>
  </defs>

  <rect width="64" height="64" rx="14" fill="url(#bg)" />

  <path d="M20 26c0-5 3-9 8-9 2 0 4 1 5 3 1-2 3-3 5-3 5 0 8 4 8 9 0 2-1 4-2 5 1 2 2 4 2 6 0 5-3 9-8 9-2 0-4-1-5-3-1 2-3 3-5 3-5 0-8-4-8-9 0-2 1-4 2-6-1-1-2-3-2-5z"
        fill="none"
        stroke="#dbeafe"
        stroke-width="3.2"
        stroke-linecap="round"
        stroke-linejoin="round" />

  <path d="M15 33h8l3-5 4 10 4-8 3 4h12"
        fill="none"
        stroke="url(#pulse)"
        stroke-width="3"
        stroke-linecap="round"
        stroke-linejoin="round" />

  <circle cx="15" cy="33" r="2" fill="#7c3aed" />
  <circle cx="49" cy="34" r="2" fill="#22d3ee" />
</svg>